#!OML:ASF H:\LiuWeirdWalks\Patient Classification 1\Patient 1\Session 1\male.ASF
:FULLY-SPECIFIED
:DEGREES
957
root 2.07556 18.1363 16.2977 3.34881 16.7026 5.94297
lowerback 2.12164 0.758998 -8.60391
upperback -0.482205 0.777315 0.0482715
thorax -1.81106 0.480845 4.84987
lowerneck -11.9589 -0.345279 4.87113
upperneck 21.8585 0.141464 -6.98155
head 8.78317 -0.236579 -3.17943
rclavicle 1.84373e-014 -1.94809e-014
rhumerus -40.6181 -12.091 -72.9853
rradius 31.8968
rwrist -7.79295
rhand -16.3784 -2.49362
rfingers 7.12502
rthumb 9.8351 -32.2439
lclavicle 1.84373e-014 -1.94809e-014
lhumerus -45.3231 1.46044 82.2769
lradius 33.0266
lwrist 10.0839
lhand -13.8619 -2.25195
lfingers 7.12502
lthumb 12.2623 27.3686
rfemur -33.7624 -8.67075 7.64582
rtibia 26.4106
rfoot 25.9606 -21.1453
rtoes -2.99472
lfemur 15.8022 -8.88042 -26.5367
ltibia 5.90119
lfoot -3.91087 -0.572316
ltoes -20.9821
958
root 2.0565 18.1259 16.393 3.47716 16.7896 5.98826
lowerback 2.08628 0.703267 -8.67595
upperback -0.470934 0.705114 0.0393422
thorax -1.76964 0.443448 4.88443
lowerneck -12.2445 -0.258799 4.96729
upperneck 21.8966 0.247113 -7.05095
head 8.85667 -0.191052 -3.2127
rclavicle 6.68413e-015 -1.47101e-014
rhumerus -40.4368 -11.9824 -73.126
rradius 31.8682
rwrist -7.78878
rhand -16.3915 -2.52269
rfingers 7.12502
rthumb 9.82247 -32.2736
lclavicle 6.68413e-015 -1.47101e-014
lhumerus -45.2282 1.68058 82.0901
lradius 32.9898
lwrist 10.0901
lhand -13.858 -2.24745
lfingers 7.12502
lthumb 12.2661 27.3728
rfemur -33.6377 -8.88442 7.81829
rtibia 26.6349
rfoot 25.4642 -20.2533
rtoes -4.17874
lfemur 16.0276 -9.02259 -26.4264
ltibia 5.78
lfoot -3.80369 -0.682392
ltoes -21.3266
959
root 2.03728 18.1144 16.4904 3.60404 16.8914 6.05598
lowerback 2.06611 0.698089 -8.71783
upperback -0.521615 0.696337 0.0180754
thorax -1.81013 0.44278 4.88596
lowerneck -12.3176 -0.253015 4.94554
upperneck 21.937 0.259102 -7.04994
head 8.88505 -0.188162 -3.20918
rclavicle -1.67476e-014 4.77083e-015
rhumerus -40.464 -11.9515 -73.1424
rradius 31.8775
rwrist -7.79965
rhand -16.4129 -2.53769
rfingers 7.12502
rthumb 9.80179 -32.2896
lclavicle -1.67476e-014 4.77083e-015
lhumerus -45.2475 1.7264 82.0029
lradius 32.9611
lwrist 10.1089
lhand -13.8644 -2.26982
lfingers 7.12502
lthumb 12.2598 27.3508
rfemur -33.5033 -9.15631 7.99856
rtibia 26.9396
rfoot 24.6008 -19.3075
rtoes -5.36284
lfemur 16.2587 -9.17987 -26.3387
ltibia 5.68008
lfoot -3.70018 -0.79847
ltoes -21.6741
960
root 2.01727 18.1025 16.5893 3.72219 16.9978 6.11371
lowerback 2.03671 0.68561 -8.75506
upperback -0.560332 0.679541 0.000342928
thorax -1.83173 0.436911 4.88906
lowerneck -12.3949 -0.23845 4.94324
upperneck 21.9627 0.281365 -7.06278
head 8.90991 -0.1804 -3.21231
rclavicle 2.1096e-014 7.55382e-015
rhumerus -40.4764 -11.9209 -73.1696
rradius 31.8827
rwrist -7.79956
rhand -16.4266 -2.53228
rfingers 7.12502
rthumb 9.78863 -32.2848
lclavicle 2.1096e-014 7.55382e-015
lhumerus -45.257 1.78789 81.9075
lradius 32.9397
lwrist 10.1021
lhand -13.8515 -2.2663
lfingers 7.12502
lthumb 12.2723 27.3536
rfemur -33.3636 -9.42001 8.2009
rtibia 27.3042
rfoot 23.4848 -18.4148
rtoes -6.40642
lfemur 16.4878 -9.34198 -26.2369
ltibia 5.59941
lfoot -3.59156 -0.924988
ltoes -22.0308
961
root 1.99581 18.0911 16.6894 3.83485 17.0958 6.14051
lowerback 2.02472 0.680224 -8.77054
upperback -0.611274 0.670525 -0.00802223
thorax -1.87686 0.436142 4.88916
lowerneck -12.447 -0.228514 4.93006
upperneck 21.9737 0.298034 -7.06743
head 8.92462 -0.174894 -3.2107
rclavicle 6.25799e-014 -7.15625e-015
rhumerus -40.5068 -11.8948 -73.1893
rradius 31.8781
rwrist -7.80701
rhand -16.4546 -2.49124
rfingers 7.12502
rthumb 9.76158 -32.245
lclavicle 6.25799e-014 -7.15625e-015
lhumerus -45.2879 1.83492 81.818
lradius 32.9221
lwrist 10.094
lhand -13.8376 -2.29448
lfingers 7.12502
lthumb 12.2857 27.3246
rfemur -33.2283 -9.61857 8.43494
rtibia 27.7
rfoot 22.2782 -17.6889
rtoes -7.04291
lfemur 16.6937 -9.49706 -26.094
ltibia 5.55026
lfoot -3.48182 -1.06109
ltoes -22.3755
962
root 1.97393 18.0806 16.7907 3.93352 17.1863 6.13703
lowerback 1.98435 0.552269 -8.84749
upperback -0.641191 0.500592 -0.0147585
thorax -1.86065 0.352529 4.93229
lowerneck -12.441 -0.0786487 5.20684
upperneck 21.8873 0.475356 -7.21349
head 8.90609 -0.0842773 -3.28687
rclavicle 1.53934e-014 -2.14687e-014
rhumerus -40.3801 -11.6434 -73.4585
rradius 31.7969
rwrist -7.73204
rhand -16.5078 -2.38789
rfingers 7.12502
rthumb 9.71025 -32.1441
lclavicle 1.53934e-014 -2.14687e-014
lhumerus -45.3678 2.16891 81.4924
lradius 32.9386
lwrist 10.1007
lhand -13.8323 -2.31501
lfingers 7.12502
lthumb 12.2908 27.3038
rfemur -33.0869 -9.77447 8.70123
rtibia 28.0999
rfoot 21.039 -17.1598
rtoes -7.40329
lfemur 16.8745 -9.64296 -25.9186
ltibia 5.56346
lfoot -3.37228 -1.20197
ltoes -22.7117
963
root 1.95146 18.0714 16.893 4.01052 17.2519 6.08332
lowerback 1.95578 0.464902 -8.85472
upperback -0.667693 0.385821 -0.00338922
thorax -1.85497 0.296058 4.9527
lowerneck -12.4267 0.0376224 5.41156
upperneck 21.7785 0.614876 -7.33283
head 8.87637 -0.0143646 -3.34498
rclavicle -2.0363e-014 1.51076e-014
rhumerus -40.2764 -11.4688 -73.6523
rradius 31.7092
rwrist -7.64965
rhand -16.5522 -2.2841
rfingers 7.12502
rthumb 9.66745 -32.0423
lclavicle -2.0363e-014 1.51076e-014
lhumerus -45.4319 2.45943 81.2242
lradius 32.9558
lwrist 10.0787
lhand -13.8312 -2.3176
lfingers 7.12502
lthumb 12.2919 27.3011
rfemur -32.9418 -9.86581 9.02292
rtibia 28.4796
rfoot 19.8083 -16.8587
rtoes -7.58891
lfemur 17.0143 -9.76132 -25.6894
ltibia 5.66944
lfoot -3.28284 -1.34292
ltoes -23.0321
